HIERARCHY
ROOT Hips
{
	OFFSET -0.001795 -0.223333 0.028219
	CHANNELS 6 Xposition Yposition Zposition Zrotation Yrotation Xrotation 
	JOINT LeftUpLeg
	{
		OFFSET 0.069520 -0.091406 -0.006815
		CHANNELS 3 Zrotation Yrotation Xrotation
		JOINT LeftLeg
		{
			OFFSET 0.034277 -0.375199 -0.004496
			CHANNELS 3 Zrotation Yrotation Xrotation
			JOINT LeftFoot
			{
				OFFSET -0.013596 -0.397961 -0.043693
				CHANNELS 3 Zrotation Yrotation Xrotation
				JOINT LeftToe
				{
					OFFSET 0.026358 -0.055791 0.119288
					CHANNELS 3 Zrotation Yrotation Xrotation
					End Site
					{
						OFFSET 0.000000 0.000000 0.000000
					}
				}
			}
		}
	}
	JOINT RightUpLeg
	{
		OFFSET -0.067670 -0.090522 -0.004320
		CHANNELS 3 Zrotation Yrotation Xrotation
		JOINT RightLeg
		{
			OFFSET -0.038290 -0.382569 -0.008850
			CHANNELS 3 Zrotation Yrotation Xrotation
			JOINT RightFoot
			{
				OFFSET 0.015774 -0.398415 -0.042312
				CHANNELS 3 Zrotation Yrotation Xrotation
				JOINT RightToe
				{
					OFFSET -0.025372 -0.048144 0.123348
					CHANNELS 3 Zrotation Yrotation Xrotation
					End Site
					{
						OFFSET 0.000000 0.000000 0.000000
					}
				}
			}
		}
	}
	JOINT Spine
	{
		OFFSET -0.002533 0.108963 -0.026696
		CHANNELS 3 Zrotation Yrotation Xrotation
		JOINT Spine1
		{
			OFFSET 0.005487 0.135180 0.001092
			CHANNELS 3 Zrotation Yrotation Xrotation
			JOINT Spine2
			{
				OFFSET 0.001457 0.052922 0.025425
				CHANNELS 3 Zrotation Yrotation Xrotation
				JOINT Neck
				{
					OFFSET -0.002778 0.213870 -0.042857
					CHANNELS 3 Zrotation Yrotation Xrotation
					JOINT Head
					{
						OFFSET 0.005152 0.064970 0.051349
						CHANNELS 3 Zrotation Yrotation Xrotation
						End Site
						{
							OFFSET 0.000000 0.000000 0.000000
						}
					}
				}
				JOINT LeftShoulder
				{
					OFFSET 0.078845 0.121749 -0.034090
					CHANNELS 3 Zrotation Yrotation Xrotation
					JOINT LeftArm
					{
						OFFSET 0.090977 0.030469 -0.008868
						CHANNELS 3 Zrotation Yrotation Xrotation
						JOINT LeftForeArm
						{
							OFFSET 0.259612 -0.012772 -0.027456
							CHANNELS 3 Zrotation Yrotation Xrotation
							JOINT LeftHand
							{
								OFFSET 0.249234 0.008986 -0.001171
								CHANNELS 3 Zrotation Yrotation Xrotation
								End Site
								{
									OFFSET 0.000000 0.000000 0.000000
								}
							}
						}
					}
				}
				JOINT RightShoulder
				{
					OFFSET -0.081759 0.118833 -0.038615
					CHANNELS 3 Zrotation Yrotation Xrotation
					JOINT RightArm
					{
						OFFSET -0.096012 0.032551 -0.009143
						CHANNELS 3 Zrotation Yrotation Xrotation
						JOINT RightForeArm
						{
							OFFSET -0.253742 -0.013329 -0.021401
							CHANNELS 3 Zrotation Yrotation Xrotation
							JOINT RightHand
							{
								OFFSET -0.255298 0.007772 -0.005559
								CHANNELS 3 Zrotation Yrotation Xrotation
								End Site
								{
									OFFSET 0.000000 0.000000 0.000000
								}
							}
						}
					}
				}
			}
		}
	}
}
MOTION
Frames: 11
Frame Time: 0.050000
-0.831864 0.944998 -1.003676 -4.397461 48.884558 -0.537461 11.468775 -2.066363 -15.234619 -3.225345 -4.158836 28.103317 6.501158 15.218171 8.168849 0.000000 0.000000 0.000000 -4.299741 -1.965763 -23.002508 0.751345 -1.469384 14.037134 -9.996750 -20.432399 8.931512 0.000000 0.000000 0.000000 -6.999060 -4.602256 33.418972 6.659519 0.085453 -21.455485 -0.670150 5.341559 27.768630 -7.367571 10.122283 -30.535632 0.000000 0.000000 0.000000 -31.331645 -16.294360 -6.752567 -29.666966 -25.892494 4.368274 48.938454 -48.052684 -25.155328 0.000000 0.000000 0.000000 22.308913 14.443874 16.932129 35.879825 28.290163 0.469223 -41.927494 48.100094 -12.300214 0.000000 0.000000 0.000000 
-0.828525 0.945595 -1.029629 -5.501067 49.847485 -0.243717 12.272208 -2.093834 -13.986671 -3.956324 -2.788811 23.120640 6.120946 14.102339 7.382762 0.000000 0.000000 0.000000 -3.900702 -2.234655 -24.622427 -0.504081 -0.950698 13.094635 -11.132464 -20.818295 12.409771 0.000000 0.000000 0.000000 -9.472701 -3.990933 32.760863 7.896618 -0.316427 -21.913905 -1.536841 3.391562 27.682713 -7.046079 9.694900 -32.468607 0.000000 0.000000 0.000000 -29.589611 -17.862289 -4.795117 -26.280925 -29.852406 4.322102 46.468773 -43.327828 -21.378654 0.000000 0.000000 0.000000 20.767194 12.573908 14.871781 39.609453 25.177032 0.170359 -43.736386 49.685590 -12.836416 0.000000 0.000000 0.000000 
-0.826761 0.947855 -1.053814 -7.362077 50.836094 -1.516080 13.605282 -2.336783 -15.012275 -5.481303 -2.283957 21.874697 6.684695 15.146232 8.008303 0.000000 0.000000 0.000000 -4.020472 -2.469911 -25.146077 -0.883397 -0.739418 12.203325 -11.258273 -18.140046 17.984342 0.000000 0.000000 0.000000 -11.405755 -3.654829 32.382312 8.780732 -0.689961 -21.110590 -2.084280 1.799047 26.818276 -6.504995 9.140331 -33.955153 0.000000 0.000000 0.000000 -27.978926 -18.660430 -3.337047 -23.367416 -32.969780 4.049509 44.806639 -40.604771 -19.199054 0.000000 0.000000 0.000000 17.827248 10.454783 12.023205 42.959536 22.668113 0.239124 -41.430163 52.015877 -11.948673 0.000000 0.000000 0.000000 
-0.825580 0.951349 -1.074739 -9.528304 50.668675 -3.262836 14.910821 -2.478307 -15.093866 -6.056173 -1.913718 20.530830 6.480271 14.986111 8.235677 0.000000 0.000000 0.000000 -3.779335 -2.467425 -25.661494 0.130004 -1.258502 13.685789 -9.121128 -13.039538 21.816560 0.000000 0.000000 0.000000 -13.875057 -3.379085 32.745465 9.405865 -0.963020 -21.292280 -2.071246 1.056748 26.559792 -4.863454 8.266202 -34.907889 0.000000 0.000000 0.000000 -25.709224 -17.312705 -3.092998 -21.367386 -34.755908 3.580879 43.513208 -41.880286 -19.328664 0.000000 0.000000 0.000000 15.197813 9.919874 10.315581 45.784431 20.598460 0.345041 -40.119536 53.763343 -11.643851 0.000000 0.000000 0.000000 
-0.823754 0.956068 -1.092613 -11.771140 49.766779 -4.370432 15.714901 -2.535657 -15.224112 -5.206504 -1.611838 18.422915 6.291455 15.229126 9.179527 0.000000 0.000000 0.000000 -2.184364 -1.743817 -25.377724 1.406023 -2.095004 16.072518 -8.909527 -12.231214 24.545528 0.000000 0.000000 0.000000 -15.505401 -2.831739 31.429681 9.742811 -1.205799 -20.687044 -1.595760 0.420017 25.946775 -5.307017 8.240799 -36.396122 0.000000 0.000000 0.000000 -23.656424 -16.257324 -2.733849 -21.962911 -35.849237 3.621088 44.571891 -43.695862 -20.918940 0.000000 0.000000 0.000000 12.874647 10.258215 9.347340 47.873830 19.168938 0.510136 -40.212584 53.783397 -11.630175 0.000000 0.000000 0.000000 
-0.820706 0.959195 -1.108909 -13.121386 48.765623 -4.304854 15.941109 -2.550889 -15.615011 -4.416564 -1.312694 16.126770 7.551115 17.582080 11.101084 0.000000 0.000000 0.000000 -1.367695 -1.212293 -24.490182 2.173290 -3.110416 19.485222 -8.658819 -11.287894 31.483356 0.000000 0.000000 0.000000 -15.902098 -2.384249 29.689012 9.766316 -1.255289 -20.539905 -1.963806 -0.258922 25.369003 -4.783104 7.809226 -38.227449 0.000000 0.000000 0.000000 -22.117653 -14.632533 -2.902477 -24.638160 -36.518159 4.135654 44.352399 -47.312376 -22.807389 0.000000 0.000000 0.000000 12.339323 10.692474 9.263413 48.539616 20.351823 1.271466 -43.069224 50.314053 -11.920129 0.000000 0.000000 0.000000 
-0.816029 0.960805 -1.125021 -13.444799 47.017968 -3.387559 16.330256 -2.525552 -15.624720 -3.912006 -1.010614 13.973762 8.067177 19.109725 13.602957 0.000000 0.000000 0.000000 -0.700372 -0.504997 -22.221545 2.413022 -3.631993 21.445234 -8.778069 -11.695712 36.023666 0.000000 0.000000 0.000000 -16.030139 -1.903574 27.981311 9.496057 -1.106480 -21.725280 -2.160425 -0.034134 26.164750 -3.600724 7.421808 -36.557043 0.000000 0.000000 0.000000 -20.979816 -14.060661 -2.802392 -27.403676 -36.059355 4.476772 43.808654 -50.064570 -24.103260 0.000000 0.000000 0.000000 12.642689 12.106475 10.207299 47.932800 23.561323 2.390797 -47.817297 43.338830 -11.268145 0.000000 0.000000 0.000000 
-0.809299 0.959647 -1.142418 -12.061762 45.086870 -1.673399 14.967570 -2.290485 -15.938431 -3.970291 -0.862457 13.207474 9.707938 21.599315 15.936865 0.000000 0.000000 0.000000 -1.239410 -0.228725 -20.007636 2.411655 -3.516085 21.636228 -8.506894 -11.982226 30.993437 0.000000 0.000000 0.000000 -15.805242 -1.497557 26.823220 8.588249 -0.893512 -20.643440 -1.919395 0.780846 24.156690 -2.539015 6.926035 -35.225317 0.000000 0.000000 0.000000 -23.502503 -14.644992 -2.965451 -27.746832 -32.735639 4.263073 42.560329 -53.439578 -24.596402 0.000000 0.000000 0.000000 12.801553 13.313812 10.789278 44.744078 25.639240 2.790068 -49.841113 36.085477 -9.474577 0.000000 0.000000 0.000000 
-0.801132 0.956533 -1.162454 -9.998516 42.388223 -0.077892 12.686604 -2.031553 -16.473222 -3.779086 -0.942410 14.207019 11.315859 23.820542 18.226740 0.000000 0.000000 0.000000 -2.360046 -0.158234 -18.072530 1.242459 -2.147412 18.532884 -7.795386 -11.614663 26.700006 0.000000 0.000000 0.000000 -15.711930 -1.247170 27.221451 7.954318 -0.669331 -21.805846 -1.365516 3.026951 23.922615 -0.829214 6.269333 -33.551316 0.000000 0.000000 0.000000 -25.661482 -15.250067 -3.407869 -28.183694 -30.409738 4.161745 38.343733 -54.125483 -22.191997 0.000000 0.000000 0.000000 12.322552 14.433949 11.259958 39.982499 28.305396 3.047533 -51.524706 27.938119 -6.705776 0.000000 0.000000 0.000000 
-0.792718 0.955132 -1.185284 -9.377684 39.793955 0.342642 11.364294 -1.967993 -17.645034 -4.808733 -0.944562 15.915578 13.532363 26.278551 19.201173 0.000000 0.000000 0.000000 -3.279502 -0.159145 -17.101123 0.003568 -1.065436 15.518772 -8.121733 -12.273397 28.169000 0.000000 0.000000 0.000000 -14.462310 -1.180710 27.419764 7.226176 -0.454520 -22.788846 -0.497501 4.704042 24.570612 0.346541 5.859373 -33.689280 0.000000 0.000000 0.000000 -27.848596 -14.955190 -4.212767 -28.980706 -27.565310 3.873835 32.068980 -56.019908 -18.996766 0.000000 0.000000 0.000000 12.239860 16.843758 12.452743 33.534376 30.641352 2.679095 -51.481952 21.351427 -4.462647 0.000000 0.000000 0.000000 
-0.784651 0.954732 -1.209100 -8.294837 37.005659 1.102823 10.308923 -1.861828 -17.821560 -5.827652 -0.728832 16.130305 12.894960 25.725544 18.490746 0.000000 0.000000 0.000000 -4.573412 -0.314141 -16.954184 -0.357090 -0.508498 12.771019 -8.237208 -12.777670 30.056028 0.000000 0.000000 0.000000 -13.145624 -1.082089 27.293407 7.173952 -0.483711 -22.560103 0.572678 7.389342 24.819226 0.958022 5.746542 -33.070545 0.000000 0.000000 0.000000 -30.151066 -14.980874 -5.345888 -29.267363 -24.268284 3.527975 28.670874 -56.196474 -16.872099 0.000000 0.000000 0.000000 12.208724 18.141519 13.255266 25.496329 31.942545 1.628543 -48.876627 15.231237 -2.251493 0.000000 0.000000 0.000000 
